<?xml version="1.0" encoding="UTF-8" standalone="no"?>
<!-- Created with Inkscape (http://www.inkscape.org/) -->

<svg
   xmlns:dc="http://purl.org/dc/elements/1.1/"
   xmlns:cc="http://creativecommons.org/ns#"
   xmlns:rdf="http://www.w3.org/1999/02/22-rdf-syntax-ns#"
   xmlns:svg="http://www.w3.org/2000/svg"
   xmlns="http://www.w3.org/2000/svg"
   xmlns:sodipodi="http://sodipodi.sourceforge.net/DTD/sodipodi-0.dtd"
   xmlns:inkscape="http://www.inkscape.org/namespaces/inkscape"
   id="svg2"
   version="1.1"
   inkscape:version="0.48.4 r9939"
   width="210"
   height="240"
   sodipodi:docname="logonewcentercolor2.svg">
  <metadata
     id="metadata8">
    <rdf:RDF>
      <cc:Work
         rdf:about="">
        <dc:format>image/svg+xml</dc:format>
        <dc:type
           rdf:resource="http://purl.org/dc/dcmitype/StillImage" />
        <dc:title />
      </cc:Work>
    </rdf:RDF>
  </metadata>
  <defs
     id="defs6">
    <filter
       inkscape:collect="always"
       id="filter3874">
      <feGaussianBlur
         inkscape:collect="always"
         stdDeviation="1.3141462"
         id="feGaussianBlur3876" />
    </filter>
    <filter
       inkscape:collect="always"
       id="filter3932"
       x="-0.27648738"
       width="1.5529748"
       y="-0.059086904"
       height="1.1181738">
      <feGaussianBlur
         inkscape:collect="always"
         stdDeviation="2.5302966"
         id="feGaussianBlur3934" />
    </filter>
    <filter
       inkscape:collect="always"
       id="filter3936"
       x="-0.20491286"
       width="1.4098257"
       y="-0.11734106"
       height="1.2346821">
      <feGaussianBlur
         inkscape:collect="always"
         stdDeviation="2.5302966"
         id="feGaussianBlur3938" />
    </filter>
    <filter
       inkscape:collect="always"
       id="filter3940">
      <feGaussianBlur
         inkscape:collect="always"
         stdDeviation="2.5302966"
         id="feGaussianBlur3942" />
    </filter>
    <filter
       inkscape:collect="always"
       id="filter3962"
       x="-0.16770859"
       width="1.3354172"
       y="-0.15187634"
       height="1.3037527">
      <feGaussianBlur
         inkscape:collect="always"
         stdDeviation="1.5571966"
         id="feGaussianBlur3964" />
    </filter>
    <filter
       inkscape:collect="always"
       id="filter3966"
       x="-0.1254187"
       width="1.2508374"
       y="-0.42418019"
       height="1.8483604">
      <feGaussianBlur
         inkscape:collect="always"
         stdDeviation="1.5571966"
         id="feGaussianBlur3968" />
    </filter>
    <filter
       inkscape:collect="always"
       id="filter3970"
       x="-0.1336311"
       width="1.2672622"
       y="-0.20502615"
       height="1.4100523">
      <feGaussianBlur
         inkscape:collect="always"
         stdDeviation="1.5571966"
         id="feGaussianBlur3972" />
    </filter>
    <filter
       inkscape:collect="always"
       id="filter3974"
       x="-0.44122892"
       width="1.8824578"
       y="-0.12466647"
       height="1.2493329">
      <feGaussianBlur
         inkscape:collect="always"
         stdDeviation="1.5571966"
         id="feGaussianBlur3976" />
    </filter>
    <filter
       inkscape:collect="always"
       id="filter3978"
       x="-0.14115347"
       width="1.2823069"
       y="-0.14571855"
       height="1.2914371">
      <feGaussianBlur
         inkscape:collect="always"
         stdDeviation="1.5571966"
         id="feGaussianBlur3980" />
    </filter>
    <filter
       inkscape:collect="always"
       id="filter3982"
       x="-0.16633565"
       width="1.3326713"
       y="-0.1413442"
       height="1.2826884">
      <feGaussianBlur
         inkscape:collect="always"
         stdDeviation="1.5571966"
         id="feGaussianBlur3984" />
    </filter>
    <filter
       inkscape:collect="always"
       id="filter3986"
       x="-0.10774403"
       width="1.2154881"
       y="-0.38133617"
       height="1.7626723">
      <feGaussianBlur
         inkscape:collect="always"
         stdDeviation="1.5571966"
         id="feGaussianBlur3988" />
    </filter>
    <filter
       inkscape:collect="always"
       id="filter3990"
       x="-0.17056252"
       width="1.341125"
       y="-0.13094482"
       height="1.2618896">
      <feGaussianBlur
         inkscape:collect="always"
         stdDeviation="1.5571966"
         id="feGaussianBlur3992" />
    </filter>
    <filter
       inkscape:collect="always"
       id="filter3994"
       x="-0.36161819"
       width="1.7232364"
       y="-0.11496656"
       height="1.2299331">
      <feGaussianBlur
         inkscape:collect="always"
         stdDeviation="1.5571966"
         id="feGaussianBlur3996" />
    </filter>
    <filter
       inkscape:collect="always"
       id="filter3875"
       x="-0.4925757"
       width="1.9851514"
       y="-0.099931125"
       height="1.1998622">
      <feGaussianBlur
         inkscape:collect="always"
         stdDeviation="4.0570754"
         id="feGaussianBlur3877" />
    </filter>
  </defs>
  <sodipodi:namedview
     pagecolor="#ffffff"
     bordercolor="#666666"
     borderopacity="1"
     objecttolerance="10"
     gridtolerance="10"
     guidetolerance="10"
     inkscape:pageopacity="0"
     inkscape:pageshadow="2"
     inkscape:window-width="1600"
     inkscape:window-height="876"
     id="namedview4"
     showgrid="false"
     inkscape:zoom="1.3906433"
     inkscape:cx="91.65885"
     inkscape:cy="95.59836"
     inkscape:window-x="0"
     inkscape:window-y="24"
     inkscape:window-maximized="1"
     inkscape:current-layer="layer3"
     showguides="true"
     inkscape:guide-bbox="true" />
  <g
     inkscape:groupmode="layer"
     id="layer1"
     inkscape:label="calque1"
     style="display:inline">
    <path
       style="fill:#000000;fill-opacity:1;stroke:none"
       d="M 102.11101,7.0143078 C 99.234646,54.11481 35.235491,107.86691 10.426829,117.75442 c 5.393187,-0.35954 4.674096,0.35955 6.83137,0 -2.337048,1.9775 -3.955003,2.60671 -10.4268284,5.39319 C 38.29163,119.73192 88.628045,76.94597 105.5267,51.418217 c 16.32165,19.063147 50.87573,75.324853 97.97623,65.257563 -23.73002,-3.23591 -78.20121,-56.089145 -92.40327,-71.909161 2.74177,-13.390436 -1.48555,-28.38231 -8.98865,-37.7523112 z"
       id="path2988"
       inkscape:connector-curvature="0"
       sodipodi:nodetypes="cccccccc" />
    <path
       style="fill:#fd6c9e;fill-opacity:1;stroke:none"
       d="m 101.68393,128.47947 c 7.48948,0.0319 18.21801,6.87555 18.11271,17.51896 -0.10529,10.64339 -9.07802,17.77315 -18.11271,18.15446 -9.034709,0.38131 -18.555702,-8.74593 -18.196207,-18.15446 0.359494,-9.40854 10.706705,-17.55085 18.196207,-17.51896 z"
       id="path3843"
       inkscape:connector-curvature="0"
       sodipodi:nodetypes="zzzzz" />
    <g
       id="g3879">
      <path
         sodipodi:nodetypes="ccccccc"
         inkscape:connector-curvature="0"
         id="path2990"
         d="m 31.280486,119.73192 c 25.527753,30.92094 22.669455,88.22488 16.916722,100.44944 -6.261208,4.08896 -10.593826,6.63882 -18.714451,12.26818 3.828528,-5.30285 3.993332,-7.62228 5.251743,-11.03797 -1.078637,1.70784 -4.150199,3.62895 -5.13895,3.9885 5.84262,-7.91001 18.224044,-72.41015 -4.427342,-102.612 2.303564,-1.35837 3.556502,-0.98293 6.112278,-3.05615 z"
         style="fill:#000000;fill-opacity:1;stroke:none" />
      <path
         sodipodi:nodetypes="ccccc"
         inkscape:connector-curvature="0"
         id="path3868"
         d="m 29.482758,125.30488 2.157275,-1.43818 c 0,0 24.939522,29.69829 15.46047,92.04373 -3.377358,4.37934 -5.912246,5.0006 -8.6291,5.39319 10.249248,-27.06505 0.297858,-81.37325 -8.988645,-95.99874 z"
         style="fill:#ffffff;fill-opacity:1;stroke:#ffffff;stroke-width:1px;stroke-linecap:butt;stroke-linejoin:miter;stroke-opacity:1;filter:url(#filter3875);opacity:0.41121495" />
    </g>
  </g>
  <g
     inkscape:groupmode="layer"
     id="layer3"
     inkscape:label="2"
     style="display:inline">
    <g
       id="g3865">
      <path
         sodipodi:nodetypes="cccc"
         inkscape:connector-curvature="0"
         id="path3864"
         d="M 21.864407,116.69491 C 79.830508,79.576274 105.76271,38.644067 106.77966,27.203389 c 3.55932,5.084746 3.05084,11.949153 -2.28814,21.101695 -5.338976,9.152543 -31.016943,43.474573 -82.627113,68.389826 z"
         style="opacity:0.21146952;fill:#ffffff;fill-opacity:1;stroke:#ffffff;stroke-width:1px;stroke-linecap:butt;stroke-linejoin:miter;stroke-opacity:1;filter:url(#filter3874)" />
    </g>
    <path
       style="opacity:0.21000001;fill:#ffffff;fill-opacity:1;stroke:#ffffff;stroke-width:1px;stroke-linecap:butt;stroke-linejoin:miter;stroke-opacity:1;filter:url(#filter3940)"
       d="m 108.05085,47.542373 c 5.08474,5.847457 46.27119,55.677967 79.57627,67.118647 -5.59322,3.68644 -28.55753,-7.56455 -39.91526,-17.542376 -13.60169,-11.949153 -39.91525,-45 -41.18644,-47.033898 -0.86279,-1.380468 0.25424,-1.525424 1.52543,-2.542373 z"
       id="path3878"
       inkscape:connector-curvature="0"
       sodipodi:nodetypes="ccccc" />
    <g
       id="g3807"
       transform="matrix(0.93969262,0.47309495,-0.34202015,1.2998177,87.042515,-154.33203)">
      <path
         sodipodi:nodetypes="cccccccc"
         inkscape:connector-curvature="0"
         id="path2992"
         d="m 148.71491,160.1115 c -5.69122,21.6217 17.89137,55.64967 32.78126,57.2594 -2.21336,-4.0243 -1.00607,-3.11883 -2.01215,-6.03644 2.91762,-0.10062 5.23159,-2.41458 6.94192,-3.42066 -2.21336,-1.00607 -3.52127,-1.71033 -4.92977,-3.11882 2.6158,-0.20122 4.02429,-1.00608 7.44494,-1.71034 -16.49961,-5.03036 -31.66569,-22.79447 -30.92987,-40.0871 -4.62794,-0.40242 -5.07082,-1.67876 -9.29633,-2.88604 z"
         style="fill:#000000;fill-opacity:1;stroke:none;display:inline" />
      <path
         sodipodi:nodetypes="cssssc"
         inkscape:connector-curvature="0"
         id="path3880"
         d="m 150,162.71186 c -2.0339,26.44068 23.64407,49.0678 26.94915,51.35594 3.30509,2.28813 -2.0339,-6.1017 -0.76271,-5.33899 1.27119,0.76272 4.93288,0.1802 2.54237,-1.27118 C 171.61016,203.1356 165.79448,198.75 160.82097,190.0106 155.84745,181.27119 151.7161,168.17796 150,162.71186 z"
         style="opacity:0.21000001;fill:#ffffff;fill-opacity:1;stroke:#ffffff;stroke-width:1px;stroke-linecap:butt;stroke-linejoin:miter;stroke-opacity:1;filter:url(#filter3936)" />
    </g>
    <path
       style="opacity:0.21000001;fill:#ffffff;fill-opacity:1;stroke:#ffffff;stroke-width:1px;stroke-linecap:butt;stroke-linejoin:miter;stroke-opacity:1;filter:url(#filter3932)"
       d="m 85.70405,137.83585 c 1.525424,-0.88983 3.050847,-2.79661 3.813559,-1.27119 2.033899,1.77966 25.169491,38.89831 16.016951,91.27119 -1.52542,6.35594 -8.389832,9.40678 -11.186442,10.9322 15.508472,-36.35593 1.016949,-96.10169 -8.644068,-100.9322 z"
       id="path3882"
       inkscape:connector-curvature="0"
       sodipodi:nodetypes="ccccc" />
    <g
       id="g3846"
       transform="matrix(1.0933351,0,0,1.0933351,-12.905793,-10.500047)">
      <path
         style="fill:#fd6c9e;fill-opacity:1;stroke:none;display:inline"
         d="m 91.310427,130.43323 c -6.422538,4.85603 -24.090649,-10.18802 -24.700568,-27.76613 14.556321,1.97437 31.12314,22.91008 24.700568,27.76613 z"
         id="path3847"
         inkscape:connector-curvature="0"
         sodipodi:nodetypes="zcz" />
      <path
         sodipodi:nodetypes="ccccc"
         inkscape:connector-curvature="0"
         id="path3944"
         d="m 69.077794,104.99054 c -0.179772,4.31455 14.921151,21.21321 17.977291,20.67389 3.056139,-0.53932 1.617955,-1.79773 1.438183,-4.13478 -0.179773,-2.33705 4.853868,5.21341 1.977502,7.55046 -4.31455,3.05614 -18.876155,-7.73024 -21.392976,-24.08957 z"
         style="opacity:0.38351255;fill:#ffffff;fill-opacity:1;stroke:#ffffff;stroke-width:1px;stroke-linecap:butt;stroke-linejoin:miter;stroke-opacity:1;filter:url(#filter3962)" />
    </g>
    <g
       id="g3860"
       transform="matrix(1.3859259,0,0,1.2060408,-41.699598,-24.473667)">
      <g
         transform="matrix(1,0,0,1.3294888,0,-41.299298)"
         id="g3850"
         style="display:inline">
        <path
           style="fill:#fd6c9e;fill-opacity:1;stroke:none"
           d="m 103.89835,125.3385 c -8.739029,-0.44382 -12.93874,-25.31025 -1.16719,-40.370215 10.73901,11.812069 9.90622,40.814045 1.16719,40.370215 z"
           id="path3845"
           inkscape:connector-curvature="0"
           sodipodi:nodetypes="zcz" />
      </g>
      <path
         style="opacity:0.38351255;fill:#ffffff;fill-opacity:1;stroke:#ffffff;stroke-width:1px;stroke-linecap:butt;stroke-linejoin:miter;stroke-opacity:1;filter:url(#filter3994)"
         d="m 101.86303,90.726489 c -2.91106,3.189602 -1.28563,26.143761 1.40217,27.695051 2.68781,1.55131 2.39499,-0.33712 3.7595,-2.24298 1.3645,-1.90583 0.36715,7.11371 -3.33851,7.0551 -5.26958,-0.43222 -10.41075,-18.3574 -1.82318,-32.507182 z"
         id="path3946"
         inkscape:connector-curvature="0"
         sodipodi:nodetypes="ccccc" />
    </g>
    <g
       id="g3854"
       transform="matrix(1.3385609,0,0,1.3689231,-40.756162,-47.219959)">
      <path
         sodipodi:nodetypes="zcz"
         inkscape:connector-curvature="0"
         id="path3861"
         d="m 117.62882,130.20896 c -6.62064,-6.15385 6.56725,-28.61972 25.882,-32.720731 0.65481,16.477811 -19.26133,38.874631 -25.882,32.720731 z"
         style="fill:#fd6c9e;fill-opacity:1;stroke:none;display:inline" />
      <path
         sodipodi:nodetypes="ccccc"
         inkscape:connector-curvature="0"
         id="path3948"
         d="m 139.7548,100.42823 c -4.58652,0.61312 -19.06274,20.57488 -17.92493,23.69959 1.1378,3.12471 2.19815,1.3729 4.63095,0.74833 2.43278,-0.62456 -4.59843,6.09225 -7.5999,3.49176 -4.02788,-3.98442 4.09851,-22.23965 20.89387,-27.93967 z"
         style="opacity:0.38351255;fill:#ffffff;fill-opacity:1;stroke:#ffffff;stroke-width:1.07155824px;stroke-linecap:butt;stroke-linejoin:miter;stroke-opacity:1;filter:url(#filter3990)" />
    </g>
    <g
       id="g3821"
       transform="matrix(1.6417736,0,0,1.2173608,-78.94504,-29.659501)">
      <path
         style="fill:#fd6c9e;fill-opacity:1;stroke:none;display:inline"
         d="m 123.52991,144.20462 c 2.00245,-8.73808 27.83813,-8.5515 40.93842,6.00432 -13.82808,8.73353 -42.9409,2.73385 -40.93842,-6.00432 z"
         id="path3859"
         inkscape:connector-curvature="0"
         sodipodi:nodetypes="zcz" />
      <path
         style="opacity:0.38351255;fill:#ffffff;fill-opacity:1;stroke:#ffffff;stroke-width:1.07155824px;stroke-linecap:butt;stroke-linejoin:miter;stroke-opacity:1;filter:url(#filter3986)"
         d="m 159.35244,148.26174 c -2.82423,-3.66547 -27.34975,-6.22138 -29.48689,-3.67364 -2.1372,2.54772 -0.0899,2.59009 1.66739,4.3847 1.75724,1.79458 -7.57526,-0.93623 -6.82393,-4.83578 1.4366,-5.48049 21.30935,-7.57043 34.64339,4.12477 z"
         id="path3950"
         inkscape:connector-curvature="0"
         sodipodi:nodetypes="ccccc" />
    </g>
    <g
       id="g3826"
       transform="matrix(1.1567245,0,0,1.2060472,-20.124077,-27.700052)">
      <path
         style="fill:#fd6c9e;fill-opacity:1;stroke:none;display:inline"
         d="m 117.48269,156.43328 c 6.70914,-5.07274 25.16574,10.64269 25.80288,29.00524 -15.20593,-2.06248 -32.51205,-23.93248 -25.80288,-29.00524 z"
         id="path3855"
         inkscape:connector-curvature="0"
         sodipodi:nodetypes="zcz" />
      <path
         sodipodi:nodetypes="cccccc"
         inkscape:connector-curvature="0"
         id="path3952"
         d="m 140.59559,183.26019 c 0.55413,-4.27483 -15.17582,-22.65285 -18.26178,-22.3824 -3.08598,0.27042 -1.76532,1.6469 -1.7899,3.98657 -0.0246,2.3396 -4.37318,-5.60658 -1.30961,-7.68034 4.55634,-2.66373 20.28174,9.58925 21.36123,26.07618 z"
         style="opacity:0.38351255;fill:#ffffff;fill-opacity:1;stroke:#ffffff;stroke-width:0.99821258px;stroke-linecap:butt;stroke-linejoin:miter;stroke-opacity:1;filter:url(#filter3982)" />
    </g>
    <g
       id="g3831"
       transform="matrix(1.0933351,0,0,1.2981898,-12.905793,-43.159366)">
      <path
         sodipodi:nodetypes="zcz"
         inkscape:connector-curvature="0"
         id="path3853"
         d="m 102.78752,162.11842 c 7.58996,1.73934 7.42792,24.1804 -5.215398,35.55938 -7.586024,-12.01114 -2.374618,-37.29875 5.215398,-35.55938 z"
         style="fill:#fd6c9e;fill-opacity:1;stroke:none;display:inline" />
      <path
         style="opacity:0.38351255;fill:#ffffff;fill-opacity:1;stroke:#ffffff;stroke-width:0.92610312px;stroke-linecap:butt;stroke-linejoin:miter;stroke-opacity:1;filter:url(#filter3974)"
         d="m 98.47606,193.60519 c 3.16791,-2.44087 5.37688,-23.63726 3.17497,-25.48429 -2.20189,-1.84707 -2.23851,-0.0777 -3.789516,1.44109 -1.550961,1.51868 0.809146,-6.54701 4.179376,-5.89767 4.73657,1.24161 6.54281,18.41681 -3.56487,29.94084 z"
         id="path3954"
         inkscape:connector-curvature="0"
         sodipodi:nodetypes="ccccc" />
    </g>
    <g
       id="g3836"
       transform="matrix(1.3095181,0,0,1.3442943,-35.295309,-50.940716)">
      <path
         style="fill:#fd6c9e;fill-opacity:1;stroke:none;display:inline"
         d="m 90.96306,155.47805 c 3.737257,7.30556 -14.488962,22.37623 -32.239682,19.87751 4.557742,-14.26046 28.502415,-27.18312 32.239682,-19.87751 z"
         id="path3851"
         inkscape:connector-curvature="0"
         sodipodi:nodetypes="zcz" />
      <path
         sodipodi:nodetypes="cccccc"
         inkscape:connector-curvature="0"
         id="path3956"
         d="m 61.421121,173.40369 c 3.816488,1.19497 23.70497,-11.49033 23.955002,-14.35345 0.250092,-2.86312 -1.220307,-1.87825 -3.35405,-2.2776 -2.133634,-0.39937 5.827105,-3.0924 7.228283,0.0408 1.699717,4.59212 -12.591766,18.26006 -27.829235,16.59022 z"
         style="opacity:0.38351255;fill:#ffffff;fill-opacity:1;stroke:#ffffff;stroke-width:0.92610312px;stroke-linecap:butt;stroke-linejoin:miter;stroke-opacity:1;filter:url(#filter3970)" />
    </g>
    <g
       id="g3841"
       transform="matrix(1.4123546,0,0,1.0933351,-41.172074,-10.500047)">
      <path
         sodipodi:nodetypes="zcz"
         inkscape:connector-curvature="0"
         id="path3849"
         d="m 86.511643,141.34516 c -1.043068,7.50987 -22.824591,9.25712 -34.935162,-2.04121 11.007022,-8.37774 35.978238,-5.46869 34.935162,2.04121 z"
         style="fill:#fd6c9e;fill-opacity:1;stroke:none;display:inline" />
      <path
         style="opacity:0.38351255;fill:#ffffff;fill-opacity:1;stroke:#ffffff;stroke-width:0.92610312px;stroke-linecap:butt;stroke-linejoin:miter;stroke-opacity:1;filter:url(#filter3966)"
         d="m 54.604945,139.12971 c 2.440878,3.16791 23.457475,4.6578 25.304504,2.45589 1.847085,-2.20188 0.0777,-2.23851 -1.441097,-3.7895 -1.518701,-1.55095 6.547015,0.80914 5.897661,4.17939 -1.241611,4.73657 -18.237029,7.26191 -29.761051,-2.84581 z"
         id="path3958"
         inkscape:connector-curvature="0"
         sodipodi:nodetypes="cccccc" />
    </g>
    <path
       style="opacity:0.38351255;fill:#ffffff;fill-opacity:1;stroke:#ffffff;stroke-width:1px;stroke-linecap:butt;stroke-linejoin:miter;stroke-opacity:1;filter:url(#filter3978)"
       d="m 96.583049,132.13625 c -6.112279,4.85387 -8.269554,15.99979 -2.157275,21.75253 6.112276,5.75273 17.797516,5.21341 22.831156,-2.15728 -7.01114,1.43818 -14.5616,2.6966 -19.05592,-1.9775 -4.494326,-4.67409 -4.853873,-13.66274 -1.617961,-17.61775 z"
       id="path3960"
       inkscape:connector-curvature="0"
       sodipodi:nodetypes="ccczc"
       transform="matrix(1.0933351,0,0,1.0933351,-12.905793,-10.500047)" />
  </g>
</svg>
